<svg xmlns="http://www.w3.org/2000/svg" width="256" height="256" viewBox="0 0 100 100"><rect width="100" height="100" rx="20" fill="#ee8695"></rect><path fill="#fff" d="M12.17 68.20L6.66 68.20L6.66 31.80L18.57 31.80Q22.83 31.80 25.61 33.26Q28.39 34.71 29.77 37.18Q31.15 39.65 31.15 42.77L31.15 42.77Q31.15 46.31 29.36 49.04Q27.56 51.77 23.87 53.02L23.87 53.02L31.51 68.20L25.12 68.20L18.15 53.80L12.17 53.80L12.17 68.20ZM12.17 36.74L12.17 48.80L18.25 48.80Q22.00 48.80 23.74 47.14Q25.48 45.48 25.48 42.77L25.48 42.77Q25.48 40.02 23.77 38.38Q22.05 36.74 18.20 36.74L18.20 36.74L12.17 36.74ZM49.92 68.82L49.92 68.82Q46.07 68.82 43.19 67.42Q40.30 66.02 38.66 63.42Q37.03 60.82 36.97 57.23L36.97 57.23L42.80 57.23Q42.85 59.98 44.70 61.93Q46.54 63.88 49.87 63.88L49.87 63.88Q52.94 63.88 54.65 62.45Q56.37 61.02 56.37 58.74L56.37 58.74Q56.37 56.81 55.36 55.54Q54.34 54.26 52.21 53.25Q50.08 52.24 46.70 51.14L46.70 51.14Q42.17 49.69 40.04 47.11Q37.91 44.54 37.91 40.80L37.91 40.80Q37.91 36.48 41.03 33.83Q44.15 31.18 49.61 31.18L49.61 31.18Q54.91 31.18 58.14 33.91Q61.36 36.64 61.47 41.47L61.47 41.47L55.59 41.47Q55.59 40.17 54.86 38.95Q54.13 37.73 52.78 36.92Q51.43 36.12 49.45 36.12L49.45 36.12Q47.01 36.06 45.35 37.29Q43.68 38.51 43.68 40.59L43.68 40.59Q43.68 43.14 45.71 44.57Q47.74 46.00 52.31 47.50L52.31 47.50Q55.17 48.44 57.38 49.77Q59.59 51.09 60.87 53.15Q62.14 55.20 62.14 58.37L62.14 58.37Q62.14 61.28 60.69 63.65Q59.23 66.02 56.50 67.42Q53.77 68.82 49.92 68.82ZM81.12 68.82L81.12 68.82Q77.27 68.82 74.39 67.42Q71.50 66.02 69.86 63.42Q68.23 60.82 68.17 57.23L68.17 57.23L74.00 57.23Q74.05 59.98 75.90 61.93Q77.74 63.88 81.07 63.88L81.07 63.88Q84.14 63.88 85.85 62.45Q87.57 61.02 87.57 58.74L87.57 58.74Q87.57 56.81 86.56 55.54Q85.54 54.26 83.41 53.25Q81.28 52.24 77.90 51.14L77.90 51.14Q73.37 49.69 71.24 47.11Q69.11 44.54 69.11 40.80L69.11 40.80Q69.11 36.48 72.23 33.83Q75.35 31.18 80.81 31.18L80.81 31.18Q86.11 31.18 89.34 33.91Q92.56 36.64 92.67 41.47L92.67 41.47L86.79 41.47Q86.79 40.17 86.06 38.95Q85.33 37.73 83.98 36.92Q82.63 36.12 80.65 36.12L80.65 36.12Q78.21 36.06 76.55 37.29Q74.88 38.51 74.88 40.59L74.88 40.59Q74.88 43.14 76.91 44.57Q78.94 46.00 83.51 47.50L83.51 47.50Q86.37 48.44 88.58 49.77Q90.79 51.09 92.07 53.15Q93.34 55.20 93.34 58.37L93.34 58.37Q93.34 61.28 91.89 63.65Q90.43 66.02 87.70 67.42Q84.97 68.82 81.12 68.82Z"></path></svg>